<?xml version="1.0" encoding="utf-8"?>
<!-- Generator: Adobe Illustrator 14.0.0, SVG Export Plug-In . SVG Version: 6.00 Build 43363)  -->
<!DOCTYPE svg PUBLIC "-//W3C//DTD SVG 1.1//EN" "http://www.w3.org/Graphics/SVG/1.1/DTD/svg11.dtd">
<svg version="1.1" id="Layer_1" xmlns="http://www.w3.org/2000/svg" xmlns:xlink="http://www.w3.org/1999/xlink" x="0px" y="0px"
	 width="188px" height="120px" viewBox="0 0 188 120" enable-background="new 0 0 188 120" xml:space="preserve">
<g>
	<circle fill="#EC2024" cx="142.071" cy="45.54" r="43.144"/>
	<path fill="#231F20" d="M1.947,84.698V38.169h15.627c8.123,0,12.184,4.226,12.184,12.676v21.175
		c0,8.451-4.149,12.678-12.448,12.678H1.947z M24.582,50.845c0-4.912-2.324-7.366-6.97-7.366H7.124v35.908h10.355
		c4.733,0,7.103-2.456,7.103-7.366V50.845z"/>
	<path fill="#231F20" d="M58.099,84.698l-2.455-9.229H40.046l-2.324,9.229h-5.11l12.346-46.529h5.973l12.745,46.529H58.099z
		 M47.813,45.336l-6.637,25.755h13.34L47.813,45.336z"/>
	<path fill="#231F20" d="M77.351,84.698c-7.434,0-11.152-3.784-11.152-11.351V38.169h5.178v35.179c0,4.025,1.947,6.039,5.84,6.039
		h6.571c3.85,0,5.775-2.014,5.775-6.039V38.169h5.178v35.179c0,7.566-3.717,11.351-11.152,11.351H77.351z"/>
	<path fill="#FFFFFF" d="M134.588,65.477v-4.732c-0.715,1.783-1.68,3.016-2.901,3.703c-1.222,0.686-2.952,1.029-5.192,1.029h-7.939
		c-5.907,0-8.859-3.993-8.859-11.986V26.309h5.652v26.876c0,4.276,1.551,6.415,4.656,6.415h9.008c1.987,0,3.386-0.534,4.201-1.604
		c0.813-1.068,1.222-2.696,1.222-4.887v-26.8h5.726v39.167H134.588z"/>
	<path fill="#FFFFFF" d="M152.263,65.477v12.219h-5.726V26.309h18.324c4.325,0,7.315,1.259,8.972,3.781
		c1.652,2.518,2.481,6.298,2.481,11.338v11.757c0,8.197-3.816,12.292-11.453,12.292H152.263z M170.589,40.283
		c0-2.597-0.411-4.583-1.223-5.957c-0.815-1.374-2.368-2.063-4.659-2.063h-12.444V59.6h12.444c3.921,0,5.882-2.187,5.882-6.568
		V40.283z"/>
</g>
<g>
	<path fill="#231F20" d="M1.94,113.973V96.326h6.504c2.595,0,3.892,1.436,3.892,4.306v2.492c0,2.769-1.296,4.152-3.89,4.152H3.903
		v6.696H1.94z M10.374,100.657c0-1.545-0.647-2.316-1.939-2.316H3.903v7.073h4.531c1.292,0,1.939-0.763,1.939-2.29V100.657z"/>
	<path fill="#231F20" d="M14.275,113.973V96.326h1.888v17.646H14.275z"/>
	<path fill="#231F20" d="M21.475,113.973c-1.058,0-1.833-0.256-2.329-0.769c-0.495-0.511-0.742-1.27-0.742-2.277v-1.888
		c0-1.912,1.023-2.871,3.071-2.871h5.01v-0.98c0-1.442-0.647-2.164-1.939-2.164h-5.413v-1.964h5.413
		c2.518,0,3.776,1.351,3.776,4.053v8.86H21.475z M26.484,107.831h-4.859c-0.973,0-1.46,0.513-1.46,1.536v1.307
		c0,0.992,0.487,1.487,1.46,1.487h4.859V107.831z"/>
	<path fill="#231F20" d="M32.928,117.976v-1.787h3.65c1.243,0,1.863-0.764,1.863-2.29v-1.058h-4.028
		c-2.517,0-3.776-1.317-3.776-3.952v-7.829h1.888v7.904c0,1.41,0.655,2.114,1.964,2.114h3.952V101.06h1.913v12.763
		c0,2.769-1.2,4.153-3.6,4.153H32.928z"/>
	<path fill="#231F20" d="M42.922,99.349v-3.022h1.913v3.022H42.922z M42.922,113.973V101.06h1.913v12.913H42.922z"/>
	<path fill="#231F20" d="M55.784,113.973v-8.836c0-1.409-0.503-2.113-1.51-2.113h-3.197c-0.654,0-1.112,0.168-1.372,0.503
		c-0.26,0.336-0.391,0.88-0.391,1.637v8.81h-1.888V101.06h1.813v1.586c0.234-0.588,0.558-0.999,0.969-1.233
		c0.411-0.234,0.977-0.353,1.699-0.353h2.845c1.929,0,2.895,1.317,2.895,3.953v8.96H55.784z"/>
	<path fill="#231F20" d="M59.536,102.443l0.252-6.117h2.039l-0.881,6.117H59.536z"/>
	<path fill="#231F20" d="M72.046,113.973c-1.057,0-1.833-0.256-2.329-0.769c-0.495-0.511-0.743-1.27-0.743-2.277v-1.888
		c0-1.912,1.024-2.871,3.071-2.871h5.01v-0.98c0-1.442-0.646-2.164-1.938-2.164h-5.412v-1.964h5.412
		c2.518,0,3.776,1.351,3.776,4.053v8.86H72.046z M77.056,107.831h-4.858c-0.974,0-1.46,0.513-1.46,1.536v1.307
		c0,0.992,0.487,1.487,1.46,1.487h4.858V107.831z"/>
	<path fill="#231F20" d="M94.475,113.973v-8.836c0-1.409-0.503-2.113-1.511-2.113h-3.197c-0.654,0-1.111,0.168-1.371,0.503
		c-0.26,0.336-0.39,0.88-0.39,1.637v8.81h-1.889V101.06h1.812v1.586c0.235-0.588,0.558-0.999,0.969-1.233s0.978-0.353,1.7-0.353
		h2.845c1.93,0,2.895,1.317,2.895,3.953v8.96H94.475z"/>
	<path fill="#231F20" d="M102.404,113.973c-2.516,0-3.775-1.353-3.775-4.06v-4.818c0-2.708,1.26-4.061,3.775-4.061h2.292
		c2.533,0,3.801,1.355,3.801,4.067v3.208h-8.031v1.561c0,1.443,0.646,2.164,1.938,2.164h5.739v1.938H102.404z M106.685,105.063
		c0-1.444-0.654-2.166-1.963-2.166h-2.317c-1.292,0-1.938,0.722-1.938,2.166v1.586h6.219V105.063z"/>
	<path fill="#231F20" d="M120.404,113.973l-2.67-10.068l-2.668,10.068h-1.813l-3.7-12.913h1.963l2.72,10.246l2.693-10.246h1.763
		l2.719,10.246l2.719-10.246h1.888l-3.7,12.913H120.404z"/>
	<path fill="#231F20" d="M134.5,117.976v-1.787h3.978c1.241,0,1.862-0.764,1.862-2.29v-1.058h-4.203
		c-2.518,0-3.776-1.317-3.776-3.952v-3.776c0-2.702,1.259-4.053,3.776-4.053h6.116v12.763c0,2.769-1.199,4.153-3.599,4.153H134.5z
		 M140.34,103.023h-4.128c-1.31,0-1.963,0.722-1.963,2.164v3.776c0,1.41,0.653,2.114,1.963,2.114h4.128V103.023z"/>
	<path fill="#231F20" d="M147.514,113.973c-1.057,0-1.833-0.256-2.328-0.769c-0.495-0.511-0.743-1.27-0.743-2.277v-1.888
		c0-1.912,1.023-2.871,3.071-2.871h5.009v-0.98c0-1.442-0.646-2.164-1.938-2.164h-5.411v-1.964h5.411
		c2.518,0,3.776,1.351,3.776,4.053v8.86H147.514z M152.522,107.831h-4.857c-0.974,0-1.459,0.513-1.459,1.536v1.307
		c0,0.992,0.485,1.487,1.459,1.487h4.857V107.831z"/>
	<path fill="#231F20" d="M171.177,113.973v-8.836c0-1.409-0.504-2.113-1.511-2.113h-2.265c-0.487,0-0.869,0.163-1.146,0.49
		c-0.277,0.327-0.416,0.868-0.416,1.623v8.836h-1.862v-8.836c0-0.755-0.135-1.296-0.403-1.623c-0.268-0.327-0.646-0.49-1.132-0.49
		h-2.04c-0.653,0-1.111,0.168-1.371,0.503c-0.261,0.336-0.391,0.88-0.391,1.637v8.81h-1.888V101.06h1.812v1.586
		c0.236-0.588,0.559-0.999,0.97-1.233s0.978-0.353,1.698-0.353h1.712c1.294,0,2.124,0.63,2.493,1.888
		c0.219-0.705,0.566-1.196,1.045-1.473c0.477-0.276,1.069-0.415,1.774-0.415h1.888c1.947,0,2.92,1.317,2.92,3.953v8.96H171.177z"/>
	<path fill="#231F20" d="M179.131,113.973c-2.517,0-3.775-1.353-3.775-4.06v-4.818c0-2.708,1.259-4.061,3.775-4.061h2.29
		c2.536,0,3.802,1.355,3.802,4.067v3.208h-8.029v1.561c0,1.443,0.646,2.164,1.938,2.164h5.74v1.938H179.131z M183.41,105.063
		c0-1.444-0.654-2.166-1.963-2.166h-2.316c-1.292,0-1.938,0.722-1.938,2.166v1.586h6.217V105.063z"/>
</g>
</svg>
